<svg id="レイヤー_1" data-name="レイヤー 1" xmlns="http://www.w3.org/2000/svg" viewBox="0 0 131.3 243.6"><defs><style>.cls-1{fill:#fff;stroke:#fff;stroke-miterlimit:10;}</style></defs><path class="cls-1" d="M432.24,763.23c0-9.32-.76-18.71.17-27.94,1.6-15.94-1-26-20.92-23.86-22.56,2.42-14.21-15.67-15.15-26.47-.93-10.55-3.24-24.24,14.94-21.43,19.3,3,21.42-6.48,21.37-22.91C432.51,592.13,466,566.68,514,577c18.59,4,9.34,18.62,11,28.79,1.75,10.48-.9,17.87-14.47,17.63-11.62-.2-26.79-4.85-28,15.82-.88,15.42,0,27.49,20.51,23.77,19.77-3.58,21.83,7.75,21.37,23.68-.42,14.64.65,28.3-20.48,24.69-19.4-3.32-22.3,7.07-21.47,23.38,1.12,22-.19,44,.4,66s-15.51,15.53-26.78,15.8c-10.65.26-25.45,5.35-24.07-15.22C432.94,788.69,432.25,775.94,432.24,763.23Z" transform="translate(-395.08 -574.2)"/></svg>