<svg id="レイヤー_1" data-name="レイヤー 1" xmlns="http://www.w3.org/2000/svg" viewBox="0 0 260.5 260.5"><defs><style>.cls-1,.cls-2{fill:none;}.cls-1,.cls-2,.cls-3{stroke:#fff;stroke-miterlimit:10;}.cls-1{stroke-width:13px;}.cls-2{stroke-width:15px;}.cls-3{fill:#fff;}</style></defs><path class="cls-1" d="M361.21,997.82V844q7-38.7,45.74-45.74H560.82c36.17,9.34,47.57,23.82,47.73,61.41.16,41.48.28,83,0,124.46q-.45,61-61.43,61.43c-41.49.32-83,.2-124.46,0C385,1045.39,370.55,1034,361.21,997.82Z" transform="translate(-354.71 -791.71)"/><path class="cls-2" d="M544.82,920.66c.15,34.42-25.69,60.77-60,61.15-35.22.38-62-26.31-61.7-61.49.3-34.13,26.79-60.24,61-60.15S544.68,886.39,544.82,920.66Z" transform="translate(-354.71 -791.71)"/><path class="cls-3" d="M565.65,853.28c-.16,10-5.09,16.06-14.69,16.32s-15.48-5.76-15.58-15.21c-.08-8.38,4.89-14.19,13.72-14.86C558.88,838.78,564.27,844,565.65,853.28Z" transform="translate(-354.71 -791.71)"/></svg>