<svg id="レイヤー_1" data-name="レイヤー 1" xmlns="http://www.w3.org/2000/svg" viewBox="0 0 236.71 178.53"><defs><style>.cls-1{fill:#fff;}</style></defs><path class="cls-1" d="M616.84,790c-9.08,47.36-51,85.42-106.59,95.45-32.55,5.88-64.86,5.65-95.34-9.91-.89-8.35,5.56-5.74,9.73-6.27,13.94-1.79,27.6-4.33,39.18-13,4.67-7.61-2.22-6.79-6.14-8.81-10.5-5.42-22.89-8.21-28.68-20.45-2.71-5.73-.9-7.66,4.69-8,2.65-2,5.26-2.54,8.94,1.17-4.09-4.55-9.19-4.94-12.17-8.44-9.71-4.75-13.64-15-20.78-22.25-3.33-3.36-9.48-14.44,5.44-14.21,7.05-.3,7.05-.3,3.57-7.15-7.88-9.42-15-19.06-11.75-32.48,1.1-4.56.54-9.13,6.42-12,7.21-3.51,8.58,2.62,11.76,5.34,24,20.58,51.84,32.1,83.29,35.51,6.95.75,12.13.75,11.38-8.77-2.48-31.87,41.1-56.1,74-40.18,15.58,7.54,28.27,8.45,44.74.68-1.86,10.74-8.23,15.22-12.78,20.62,5.11,2.58,10.54-2.51,16.52-2.24.25,4.21-1.72,7-4.62,9.06a21.37,21.37,0,0,1-2.62,1.65c-5.86,3.17-8.93,9.51-11,13.78a56.17,56.17,0,0,0-4,12A117.84,117.84,0,0,0,616.84,790Z" transform="translate(-405.56 -710.42)"/></svg>