<svg xmlns="http://www.w3.org/2000/svg" width="216.981" height="150.327" viewBox="0 0 216.981 150.327">
  <path id="中マド_1" data-name="中マド 1" d="M64.774,149.327c-10.835,0-19.754-.193-28.07-.607a61.2,61.2,0,0,1-14.652-2.2,24.224,24.224,0,0,1-9.849-5.458,25.208,25.208,0,0,1-6.092-9.583,66.585,66.585,0,0,1-3.382-14.581A300.863,300.863,0,0,1,.007,74.339,334.237,334.237,0,0,1,3.083,31.717C4.266,23,7.272,16.152,12.019,11.357a26.444,26.444,0,0,1,8.569-5.744,36.646,36.646,0,0,1,11.345-2.62C56.871,1.007,82.285,0,107.472,0c25.054,0,50.569,1,75.839,2.962a39.271,39.271,0,0,1,12,2.715,27.525,27.525,0,0,1,9.01,5.959c4.975,4.987,8.042,12.1,9.116,21.143a364.646,364.646,0,0,1,2.545,43.61,365.46,365.46,0,0,1-2.722,43.6c-2.234,18.2-12.935,28.111-30.947,28.651-8.714.261-18.086.382-29.492.382-7.377,0-14.879-.05-22.133-.1h-.009c-7.256-.049-14.758-.1-22.138-.1,0,.027,0,.054,0,.081s0,.055,0,.083h-.122c-7.254,0-14.628.087-21.759.171h-.006C79.477,149.239,72.062,149.327,64.774,149.327ZM87.092,43.44v64.286l50.429-28.7,4.883-2.779L122.9,64.679Z" transform="translate(0.5 0.5)" fill="#fff" stroke="rgba(0,0,0,0)" stroke-miterlimit="10" stroke-width="1"/>
</svg>
